<mxfile host="app.diagrams.net" modified="2021-05-07T15:36:45.606Z" agent="5.0 (Windows NT 10.0; WOW64) AppleWebKit/537.36 (KHTML, like Gecko) Chrome/90.0.4430.93 Safari/537.36" etag="XMaeXo6Iq5Xjm5_lIABX" version="14.6.11" type="github">
  <diagram id="NNJm2ZnipQkBdvsmDhTs" name="Page-1">
    <mxGraphModel dx="868" dy="450" grid="1" gridSize="10" guides="1" tooltips="1" connect="1" arrows="1" fold="1" page="1" pageScale="1" pageWidth="827" pageHeight="1169" math="0" shadow="0">
      <root>
        <mxCell id="0" />
        <mxCell id="1" parent="0" />
        <mxCell id="ZUcZ3aQIkIUEAW7qEO7h-1" value="" style="whiteSpace=wrap;html=1;aspect=fixed;" vertex="1" parent="1">
          <mxGeometry x="190" y="180" width="400" height="400" as="geometry" />
        </mxCell>
        <mxCell id="ZUcZ3aQIkIUEAW7qEO7h-2" value="" style="rounded=1;whiteSpace=wrap;html=1;" vertex="1" parent="1">
          <mxGeometry x="210" y="205" width="360" height="185" as="geometry" />
        </mxCell>
        <mxCell id="ZUcZ3aQIkIUEAW7qEO7h-3" value="Boker 1" style="text;html=1;strokeColor=none;fillColor=none;align=center;verticalAlign=middle;whiteSpace=wrap;rounded=0;" vertex="1" parent="1">
          <mxGeometry x="370" y="220" width="60" height="20" as="geometry" />
        </mxCell>
        <mxCell id="ZUcZ3aQIkIUEAW7qEO7h-4" value="" style="rounded=0;whiteSpace=wrap;html=1;" vertex="1" parent="1">
          <mxGeometry x="230" y="250" width="130" height="70" as="geometry" />
        </mxCell>
        <mxCell id="ZUcZ3aQIkIUEAW7qEO7h-5" value="" style="rounded=0;whiteSpace=wrap;html=1;" vertex="1" parent="1">
          <mxGeometry x="400" y="250" width="134" height="70" as="geometry" />
        </mxCell>
        <mxCell id="ZUcZ3aQIkIUEAW7qEO7h-6" value="&lt;h1 style=&quot;font-size: 12px&quot;&gt;Topic A&lt;/h1&gt;&lt;div&gt;Partition 0&lt;/div&gt;" style="text;html=1;strokeColor=none;fillColor=none;spacing=5;spacingTop=-20;whiteSpace=wrap;overflow=hidden;rounded=0;fontSize=12;" vertex="1" parent="1">
          <mxGeometry x="240" y="255" width="80" height="60" as="geometry" />
        </mxCell>
        <mxCell id="ZUcZ3aQIkIUEAW7qEO7h-7" value="&lt;h1 style=&quot;font-size: 12px&quot;&gt;Topic A&lt;/h1&gt;&lt;div&gt;Partition 1&lt;/div&gt;" style="text;html=1;strokeColor=none;fillColor=none;spacing=5;spacingTop=-20;whiteSpace=wrap;overflow=hidden;rounded=0;fontSize=12;" vertex="1" parent="1">
          <mxGeometry x="410" y="255" width="80" height="60" as="geometry" />
        </mxCell>
      </root>
    </mxGraphModel>
  </diagram>
</mxfile>
